<?xml version="1.0" ?><!DOCTYPE svg  PUBLIC '-//W3C//DTD SVG 1.1//EN'  'http://www.w3.org/Graphics/SVG/1.1/DTD/svg11.dtd'><svg style="fill-rule:evenodd;clip-rule:evenodd;stroke-linejoin:round;stroke-miterlimit:2;" version="1.1" viewBox="0 0 24 24" xml:space="preserve" xmlns="http://www.w3.org/2000/svg" xmlns:serif="http://www.serif.com/" xmlns:xlink="http://www.w3.org/1999/xlink"><g id="home"><path d="M16.547,21.75l-9.047,0c-1.26,0 -2.468,-0.5 -3.359,-1.391c-0.891,-0.891 -1.391,-2.099 -1.391,-3.359c-0,-2.231 -0,-4.879 0,-6.499c0,-1.18 0.55,-2.292 1.487,-3.009c1.618,-1.237 4.493,-3.436 6.113,-4.674c0.974,-0.745 2.326,-0.745 3.3,-0c1.622,1.24 4.502,3.442 6.119,4.679c0.933,0.714 1.481,1.822 1.481,2.997c-0,1.631 -0,4.309 -0,6.553c0,1.247 -0.495,2.444 -1.377,3.326c-0.882,0.882 -2.079,1.377 -3.326,1.377Zm-1.297,-1.5l1.297,0c0.85,-0 1.664,-0.337 2.265,-0.938c0.601,-0.601 0.938,-1.415 0.938,-2.265c-0,-2.244 -0,-4.922 -0,-6.553c0,-0.708 -0.33,-1.376 -0.892,-1.806c-1.617,-1.236 -4.497,-3.439 -6.119,-4.679c-0.436,-0.333 -1.042,-0.333 -1.478,0c-1.62,1.239 -4.495,3.438 -6.113,4.675c-0.566,0.433 -0.898,1.105 -0.898,1.817c-0,1.62 -0,4.268 -0,6.499c-0,0.862 0.342,1.689 0.952,2.298c0.609,0.61 1.436,0.952 2.298,0.952l1.25,0l0,-3.75c0,-0.967 0.784,-1.75 1.75,-1.75c0.871,-0 2.129,-0 3,0c0.966,-0 1.75,0.783 1.75,1.75l-0,3.75Zm-1.5,0l-0,-3.75c-0,-0.138 -0.112,-0.25 -0.25,-0.25c-0.871,-0 -2.129,-0 -3,-0c-0.138,-0 -0.25,0.112 -0.25,0.25l-0,3.75l3.5,0Z"/></g></svg>
