<?xml version="1.0" ?><!DOCTYPE svg  PUBLIC '-//W3C//DTD SVG 1.1//EN'  'http://www.w3.org/Graphics/SVG/1.1/DTD/svg11.dtd'><svg style="fill-rule:evenodd;clip-rule:evenodd;stroke-linejoin:round;stroke-miterlimit:2;" version="1.1" viewBox="0 0 24 24" xml:space="preserve" xmlns="http://www.w3.org/2000/svg" xmlns:serif="http://www.serif.com/" xmlns:xlink="http://www.w3.org/1999/xlink"><g id="map"><path d="M4.838,20.852c1.014,-0.553 2.324,-1.268 3.168,-1.728c0.337,-0.184 0.739,-0.203 1.091,-0.052c1.344,0.576 3.871,1.659 5.215,2.235c0.775,0.332 1.66,0.29 2.4,-0.114c0.972,-0.53 2.56,-1.396 3.605,-1.966c0.883,-0.482 1.433,-1.408 1.433,-2.414c0,-2.32 0,-7.458 0,-10.128c-0,-0.618 -0.326,-1.19 -0.857,-1.505c-0.531,-0.316 -1.189,-0.328 -1.731,-0.032c-1.014,0.553 -2.324,1.268 -3.168,1.728c-0.337,0.184 -0.739,0.203 -1.091,0.052c-1.344,-0.576 -3.871,-1.659 -5.215,-2.235c-0.775,-0.332 -1.66,-0.29 -2.4,0.114c-0.972,0.53 -2.56,1.396 -3.605,1.966c-0.883,0.482 -1.433,1.408 -1.433,2.414c0,2.32 0,7.458 -0,10.128c0,0.618 0.326,1.19 0.857,1.505c0.531,0.316 1.189,0.328 1.731,0.032l-0,-0Zm-0.718,-1.317c-0.078,0.042 -0.172,0.04 -0.248,-0.005c-0.075,-0.045 -0.122,-0.126 -0.122,-0.215c0,-2.67 0,-7.808 0,-10.128c0,-0.457 0.25,-0.878 0.651,-1.097c1.045,-0.57 2.634,-1.436 3.605,-1.966c0.337,-0.184 0.739,-0.203 1.091,-0.052c1.344,0.576 3.871,1.659 5.215,2.235c0.775,0.332 1.66,0.29 2.4,-0.114c0.844,-0.46 2.154,-1.175 3.168,-1.728c0.078,-0.042 0.172,-0.04 0.248,0.005c0.075,0.045 0.122,0.126 0.122,0.215c0,2.67 0,7.808 0,10.128c-0,0.457 -0.25,0.878 -0.651,1.097c-1.045,0.57 -2.634,1.436 -3.605,1.966c-0.337,0.184 -0.739,0.203 -1.091,0.052c-1.344,-0.576 -3.871,-1.659 -5.215,-2.235c-0.775,-0.332 -1.66,-0.29 -2.4,0.114l-3.168,1.728Z"/><path d="M7.75,8.5l-0,6.5c-0,0.414 0.336,0.75 0.75,0.75c0.414,0 0.75,-0.336 0.75,-0.75l0,-6.5c-0,-0.414 -0.336,-0.75 -0.75,-0.75c-0.414,0 -0.75,0.336 -0.75,0.75Z"/><path d="M14.75,11l-0,6.5c-0,0.414 0.336,0.75 0.75,0.75c0.414,0 0.75,-0.336 0.75,-0.75l0,-6.5c-0,-0.414 -0.336,-0.75 -0.75,-0.75c-0.414,0 -0.75,0.336 -0.75,0.75Z"/></g></svg>
