<?xml version="1.0" ?><!DOCTYPE svg  PUBLIC '-//W3C//DTD SVG 1.1//EN'  'http://www.w3.org/Graphics/SVG/1.1/DTD/svg11.dtd'><svg style="fill-rule:evenodd;clip-rule:evenodd;stroke-linejoin:round;stroke-miterlimit:2;" version="1.1" viewBox="0 0 24 24" xml:space="preserve" xmlns="http://www.w3.org/2000/svg" xmlns:serif="http://www.serif.com/" xmlns:xlink="http://www.w3.org/1999/xlink"><g id="comment"><path d="M7.261,3.807c0.095,-0.876 0.838,-1.557 1.739,-1.557c1.537,0 4.463,0 6,-0c0.901,0 1.644,0.681 1.739,1.557c2.273,0.355 4.011,2.321 4.011,4.693c0,2.579 0,5.921 0,8.5c-0,2.623 -2.127,4.75 -4.75,4.75c-2.443,0 -5.557,0 -8,-0c-2.623,-0 -4.75,-2.127 -4.75,-4.75c0,-2.579 0,-5.921 0,-8.5c0,-2.372 1.738,-4.338 4.011,-4.693Zm0.02,1.523c-1.449,0.327 -2.531,1.622 -2.531,3.17c0,2.579 0,5.921 0,8.5c0,1.795 1.455,3.25 3.25,3.25c2.443,-0 5.557,-0 8,0c1.795,-0 3.25,-1.455 3.25,-3.25c0,-2.579 0,-5.921 0,-8.5c-0,-1.548 -1.082,-2.843 -2.531,-3.17c-0.154,0.809 -0.865,1.42 -1.719,1.42c-1.537,0 -4.463,0 -6,0c-0.854,-0 -1.565,-0.611 -1.719,-1.42Zm7.969,-1.33c-0,-0.138 -0.112,-0.25 -0.25,-0.25c-1.537,0 -4.463,0 -6,-0c-0.138,0 -0.25,0.112 -0.25,0.25c0,0.322 0,0.678 -0,1c0,0.138 0.112,0.25 0.25,0.25c1.537,0 4.463,0 6,0c0.138,-0 0.25,-0.112 0.25,-0.25l0,-1Z"/></g></svg>
