<?xml version="1.0" ?><svg viewBox="0 0 32 32" xmlns="http://www.w3.org/2000/svg"><title/><g data-name="product" id="product"><path d="M13,27a1,1,0,0,1-1-.9l-.85-8.51a5,5,0,0,0-.81-2.28L9.17,13.55a1,1,0,1,1,1.66-1.1L12,14.2a6.9,6.9,0,0,1,1.14,3.19L14,25.9a1,1,0,0,1-.9,1.1Z"/><path d="M24.72,30H7.16A3,3,0,0,1,5,29a3,3,0,0,1-.79-2.27L5,16.66A6.43,6.43,0,0,1,5.29,15L6.6,11.05A3,3,0,0,1,9.44,9H23V5a1,1,0,0,0-1-1H11a1,1,0,0,0-1,1V7A1,1,0,0,1,8,7V5a3,3,0,0,1,3-3H22a3,3,0,0,1,3,3v5a1,1,0,0,1-1,1H9.44a1,1,0,0,0-.95.68L7.18,15.62a4.74,4.74,0,0,0-.24,1.19L6.16,26.92a1,1,0,0,0,.27.76,1,1,0,0,0,.73.32H24.72a1,1,0,0,0,1-1.13L23.88,13.13A1,1,0,0,1,24.73,12a1,1,0,0,1,1.13.86L27.69,26.6A3,3,0,0,1,27,29,3,3,0,0,1,24.72,30Z"/><path d="M20,24.13a3.41,3.41,0,0,1-3.11-3.19A3.32,3.32,0,0,1,19.4,17a3.32,3.32,0,0,1,3.41,3.17h0a3.32,3.32,0,0,1-2.54,3.9A1.67,1.67,0,0,1,20,24.13ZM19.71,19h-.07c-.47.06-.91.76-.8,1.68s.73,1.51,1.18,1.44.92-.76.8-1.68h0C20.72,19.57,20.16,19,19.71,19Z"/><path d="M16.05,14.11a1.76,1.76,0,0,0-1.42,2,2,2,0,0,0,.71,1.29,1.55,1.55,0,0,0,1,.34h.19A1.57,1.57,0,0,0,17.66,17a2,2,0,0,0,.26-1.25A1.76,1.76,0,0,0,16.05,14.11Z"/></g></svg>
