<?xml version="1.0" ?><!DOCTYPE svg  PUBLIC '-//W3C//DTD SVG 1.1//EN'  'http://www.w3.org/Graphics/SVG/1.1/DTD/svg11.dtd'><svg style="fill-rule:evenodd;clip-rule:evenodd;stroke-linejoin:round;stroke-miterlimit:2;" version="1.1" viewBox="0 0 24 24" xml:space="preserve" xmlns="http://www.w3.org/2000/svg" xmlns:serif="http://www.serif.com/" xmlns:xlink="http://www.w3.org/1999/xlink"><g id="reply"><path d="M2.25,19.5c0,0.323 0.207,0.609 0.513,0.712c0.306,0.102 0.643,-0.004 0.837,-0.262c0,-0 0.568,-0.757 1.21,-1.613c0.985,-1.314 2.532,-2.087 4.174,-2.087c1.249,0 2.617,0 3.516,0c0.066,-0 0.13,0.026 0.177,0.073c0.047,0.047 0.073,0.111 0.073,0.177c0,0.43 0,0.953 0,1.478c-0,0.718 0.438,1.363 1.105,1.627c0.667,0.265 1.428,0.095 1.919,-0.427c1.766,-1.877 4.416,-4.692 5.627,-5.979c0.634,-0.673 0.634,-1.725 0,-2.398c-1.211,-1.287 -3.861,-4.102 -5.627,-5.979c-0.491,-0.522 -1.252,-0.692 -1.919,-0.427c-0.667,0.264 -1.105,0.909 -1.105,1.627c0,0.525 0,1.048 0,1.478c0,0.066 -0.026,0.13 -0.073,0.177c-0.047,0.047 -0.111,0.073 -0.177,0.073c-0.408,-0 -0.919,-0 -1.491,-0c-2.323,-0 -4.551,0.923 -6.194,2.565c-1.642,1.643 -2.565,3.871 -2.565,6.194c0,1.699 0,2.991 0,2.991Zm1.5,-2.243c1.272,-1.582 3.196,-2.507 5.234,-2.507c1.249,-0 2.617,-0 3.516,0c0.464,-0 0.909,0.184 1.237,0.513c0.329,0.328 0.513,0.773 0.513,1.237c0,0.43 0,0.953 -0,1.478c-0,0.103 0.063,0.195 0.158,0.233c0.095,0.038 0.204,0.013 0.274,-0.061c1.766,-1.877 4.416,-4.692 5.627,-5.979c0.09,-0.096 0.09,-0.246 -0,-0.342c-1.211,-1.287 -3.861,-4.102 -5.627,-5.979c-0.07,-0.074 -0.179,-0.099 -0.274,-0.061c-0.095,0.038 -0.158,0.13 -0.158,0.233c0,0.525 0,1.048 0,1.478c0,0.464 -0.184,0.909 -0.513,1.237c-0.328,0.329 -0.773,0.513 -1.237,0.513c-0.408,-0 -0.919,-0 -1.491,-0c-1.925,-0 -3.771,0.765 -5.133,2.126c-1.361,1.362 -2.126,3.208 -2.126,5.133l0,0.748Z"/></g></svg>
